# xmcd
#
# Track frame offsets:
#	182
#	11485
#	23177
#	36765
#	48555
#	56340
#	65895
#	77537
#	87440
#	98040
#	107332
#	119267
#	130187
#	140065
#	151617
#	162825
#	175932
#	188512
#	196772
#	207410
#	219752
#	231062
#	242217
#	252342
#
# Disc length: 3485 seconds
#
# Revision: 0
# Processed by: cddbd v1.5.2PL0 Copyright (c) Steve Scherf et al.
# Submitted via: EasyCDDAExtractor 12.0.0.1
#
DISCID=3a0d9b18
DTITLE=Romuald - Le temps des vacances
DYEAR=1991
DGENRE=Chanson
TTITLE0=Le temps des vacances
TTITLE1=Cow boy
TTITLE2=Ma plus belle année
TTITLE3=Les copains
TTITLE4=Non jamais
TTITLE5=Un adieu
TTITLE6=Où sont-elles passées
TTITLE7=Toi ma blonde
TTITLE8=A jamais
TTITLE9=Demain
TTITLE10=Un soir ensemble
TTITLE11=Je suis là
TTITLE12=Quand mon père
TTITLE13=Donne donne
TTITLE14=Les indiens
TTITLE15=L'été des collines
TTITLE16=C'est pas une vie
TTITLE17=Bonanza
TTITLE18=C'est pas facile de s'en aller
TTITLE19=Le disque du bonheur
TTITLE20=Yoffi
TTITLE21=C'est la fille la plus jolie
TTITLE22=Tout s'arrange quand on s'aime
TTITLE23=Est-ce que tu aimes les chevaux
EXTD=
EXTT0=
EXTT1=
EXTT2=
EXTT3=
EXTT4=
EXTT5=
EXTT6=
EXTT7=
EXTT8=
EXTT9=
EXTT10=
EXTT11=
EXTT12=
EXTT13=
EXTT14=
EXTT15=
EXTT16=
EXTT17=
EXTT18=
EXTT19=
EXTT20=
EXTT21=
EXTT22=
EXTT23=
PLAYORDER=
